<?xml version="1.0" encoding="utf-8"?>
<svg version="1.1" xmlns:xlink="http://www.w3.org/1999/xlink" width="116px" height="61px" xmlns="http://www.w3.org/2000/svg">
  <g transform="matrix(1 0 0 1 -98 -1390 )">
    <path d="M 98 1390  L 214 1390  L 214 1451  L 98 1451  L 98 1390  " fill-rule="nonzero" fill="#cccccc" stroke="none" />
    <path d="M 102 1394  L 210 1394  L 210 1447  L 102 1447  L 102 1394  " fill-rule="nonzero" fill="#ffffff" stroke="none" />
    <path d="M 162.895 1408.3  C 160.333 1408.3  158.32 1406.287  158.32 1403.725  C 158.32 1401.163  160.333 1399.15  162.895 1399.15  C 165.457 1399.15  167.47 1401.163  167.47 1403.725  C 167.47 1406.287  165.457 1408.3  162.895 1408.3  " fill-rule="nonzero" fill="#cccccc" stroke="none" />
    <path d="M 104 1446  L 104 1418.5  L 130.25 1406  L 167 1430.22413793103  L 188 1413.5  L 209 1430.22413793103  L 209 1446  L 104 1446  " fill-rule="nonzero" fill="#169bd5" stroke="none" />
  </g>
</svg>