<?xml version="1.0" encoding="utf-8"?>
<svg version="1.1" xmlns:xlink="http://www.w3.org/1999/xlink" width="309px" height="61px" xmlns="http://www.w3.org/2000/svg">
  <g transform="matrix(1 0 0 1 -12 -1431 )">
    <path d="M 12 1431  L 321 1431  L 321 1492  L 12 1492  L 12 1431  " fill-rule="nonzero" fill="#cccccc" stroke="none" />
    <path d="M 16 1435  L 317 1435  L 317 1488  L 16 1488  L 16 1435  " fill-rule="nonzero" fill="#ffffff" stroke="none" />
    <path d="M 177.255 1449.3  C 174.693 1449.3  172.68 1447.287  172.68 1444.725  C 172.68 1442.163  174.693 1440.15  177.255 1440.15  C 179.817 1440.15  181.83 1442.163  181.83 1444.725  C 181.83 1447.287  179.817 1449.3  177.255 1449.3  " fill-rule="nonzero" fill="#cccccc" stroke="none" />
    <path d="M 18 1487  L 18 1459.5  L 92.5 1447  L 196.8 1481.07766990291  L 256.4 1454.5  L 316 1481.07766990291  L 316 1487  L 18 1487  " fill-rule="nonzero" fill="#169bd5" stroke="none" />
  </g>
</svg>